<?xml version="1.0" standalone="no"?>
<!DOCTYPE svg PUBLIC "-//W3C//DTD SVG 20010904//EN"
 "http://www.w3.org/TR/2001/REC-SVG-20010904/DTD/svg10.dtd">
<svg version="1.0" xmlns="http://www.w3.org/2000/svg"
 width="468pt" height="468pt" viewBox="0 0 468 468"
 preserveAspectRatio="xMidYMid meet">
<metadata>
Created by potrace 1.8, written by Peter Selinger 2001-2007
</metadata>
<g transform="translate(0,468) scale(0.261453,-0.261453)"
fill="#000000" stroke="none">
<path d="M1090 1161 c-5 -11 -8 -26 -5 -33 4 -9 -27 -44 -80 -92 -47 -43 -85
-84 -85 -91 0 -14 76 -55 102 -55 9 0 25 11 36 25 26 32 33 32 84 -8 46 -34
57 -53 30 -50 -9 1 -38 -8 -64 -19 l-47 -20 15 -29 c8 -16 23 -29 33 -29 30 0
33 -27 6 -54 -14 -14 -25 -37 -25 -51 0 -21 -5 -25 -29 -25 -17 0 -33 5 -37
12 -12 19 -14 58 -3 58 18 0 9 27 -18 52 -27 25 -31 26 -128 21 -55 -2 -125 1
-155 7 -38 8 -77 9 -125 2 -39 -5 -143 -6 -235 -2 -106 4 -167 3 -172 -3 -10
-16 3 -81 21 -100 16 -16 19 -16 67 7 32 15 67 24 96 24 30 -1 59 6 82 20 55
33 71 20 38 -31 -23 -35 -60 -149 -65 -199 -1 -9 -5 -14 -9 -12 -4 3 -23 -6
-41 -20 -19 -15 -42 -26 -51 -26 -10 0 -28 -13 -41 -29 -14 -15 -50 -45 -80
-67 -47 -32 -64 -38 -101 -36 -53 2 -59 -13 -8 -22 19 -4 41 -9 48 -12 7 -3
43 18 81 46 38 27 80 50 92 50 13 0 23 -1 23 -3 0 -2 -18 -46 -40 -97 -22 -51
-40 -98 -40 -104 1 -19 47 -69 54 -58 3 6 2 13 -4 17 -17 11 -11 62 16 124 31
70 56 91 212 173 39 21 74 44 79 52 9 17 110 66 135 66 10 0 50 -9 90 -19 40
-11 99 -23 131 -27 31 -3 57 -10 57 -13 0 -4 35 -6 79 -3 91 5 91 6 91 -114 0
-40 6 -87 15 -107 8 -19 16 -63 17 -98 l3 -64 38 4 39 3 -32 27 c-29 24 -31
32 -38 112 -7 80 2 162 23 212 9 21 42 17 145 -15 96 -31 134 -52 171 -99 19
-24 44 -53 56 -66 12 -12 27 -31 32 -40 10 -17 10 -17 11 0 0 10 -32 58 -70
107 -54 67 -86 97 -135 126 -84 48 -100 66 -86 93 6 11 11 35 11 54 0 28 9 45
43 80 24 24 60 50 81 57 32 10 40 10 57 -6 10 -9 19 -23 19 -30 0 -7 14 -21
30 -31 17 -10 33 -28 37 -41 3 -13 11 -21 18 -18 7 2 17 0 22 -5 6 -6 14 -4
22 5 11 12 8 34 -12 113 -27 102 -60 188 -78 199 -6 3 -16 -2 -23 -12 -13 -17
-15 -16 -45 9 -28 23 -38 26 -79 21 -77 -8 -170 -35 -176 -50 -10 -25 -50 -15
-101 26 -27 22 -55 40 -62 40 -6 0 -15 9 -18 20 -3 11 -10 20 -15 20 -21 0
-14 36 8 45 15 6 29 26 38 50 12 35 11 42 -3 57 -21 24 -60 23 -73 -1z m69
-350 c8 -5 9 -11 3 -15 -14 -8 -43 4 -36 15 7 11 15 11 33 0z m42 -21 c-25
-21 -41 -26 -41 -12 0 9 38 30 55 31 6 0 -1 -9 -14 -19z m249 -20 c0 -5 -9
-10 -20 -10 -11 0 -20 5 -20 10 0 6 9 10 20 10 11 0 20 -4 20 -10z m-165 -26
c21 -18 24 -24 10 -19 -25 9 -46 13 -64 14 -11 1 -11 4 -1 16 17 20 20 19 55
-11z m-90 -12 c-3 -3 -11 0 -18 7 -9 10 -8 11 6 5 10 -3 15 -9 12 -12z m160
-42 c3 -5 1 -10 -4 -10 -6 0 -11 5 -11 10 0 6 2 10 4 10 3 0 8 -4 11 -10z
m-908 -212 c-3 -8 -6 -5 -6 6 -1 11 2 17 5 13 3 -3 4 -12 1 -19z m-27 -33 c-7
-9 -23 -21 -34 -27 -15 -7 -12 -1 9 19 31 30 48 35 25 8z"/>
</g>
</svg>
