<?xml version="1.0" encoding="UTF-8" standalone="no"?>
<svg
   xmlns:dc="http://purl.org/dc/elements/1.1/"
   xmlns:cc="http://creativecommons.org/ns#"
   xmlns:rdf="http://www.w3.org/1999/02/22-rdf-syntax-ns#"
   xmlns:svg="http://www.w3.org/2000/svg"
   xmlns="http://www.w3.org/2000/svg"
   xmlns:sodipodi="http://sodipodi.sourceforge.net/DTD/sodipodi-0.dtd"
   xmlns:inkscape="http://www.inkscape.org/namespaces/inkscape"
   version="1.0"
   width="48"
   height="48"
   viewBox="0 0 38.4 38.4"
   preserveAspectRatio="xMidYMid meet"
   id="svg2"
   inkscape:version="0.47 r22583"
   sodipodi:docname="toonloop.svg">
  <defs
     id="defs12">
    <inkscape:perspective
       sodipodi:type="inkscape:persp3d"
       inkscape:vp_x="0 : 292.5 : 1"
       inkscape:vp_y="0 : 1000 : 0"
       inkscape:vp_z="585 : 292.5 : 1"
       inkscape:persp3d-origin="292.5 : 195 : 1"
       id="perspective14" />
  </defs>
  <sodipodi:namedview
     pagecolor="#ffffff"
     bordercolor="#666666"
     borderopacity="1"
     objecttolerance="10"
     gridtolerance="10"
     guidetolerance="10"
     inkscape:pageopacity="0"
     inkscape:pageshadow="2"
     inkscape:window-width="1280"
     inkscape:window-height="971"
     id="namedview10"
     showgrid="false"
     inkscape:zoom="12.909402"
     inkscape:cx="25.161761"
     inkscape:cy="33.141631"
     inkscape:window-x="0"
     inkscape:window-y="27"
     inkscape:window-maximized="1"
     inkscape:current-layer="svg2" />
  <metadata
     id="metadata4">
Created by potrace 1.8, written by Peter Selinger 2001-2007
<rdf:RDF>
  <cc:Work
     rdf:about="">
    <dc:format>image/svg+xml</dc:format>
    <dc:type
       rdf:resource="http://purl.org/dc/dcmitype/StillImage" />
  </cc:Work>
</rdf:RDF>
</metadata>
  <g
     transform="matrix(0.02177854,0,0,-0.02177854,-0.66087343,34.946395)"
     id="g6"
     style="fill:#000000;stroke:#ffffff;stroke-width:18.3667041;stroke-miterlimit:4;stroke-opacity:1;stroke-dasharray:none">
    <path
       d="m 1090,1161 c -5,-11 -8,-26 -5,-33 4,-9 -27,-44 -80,-92 -47,-43 -85,-84 -85,-91 0,-14 76,-55 102,-55 9,0 25,11 36,25 26,32 33,32 84,-8 46,-34 57,-53 30,-50 -9,1 -38,-8 -64,-19 l -47,-20 15,-29 c 8,-16 23,-29 33,-29 30,0 33,-27 6,-54 -14,-14 -25,-37 -25,-51 0,-21 -5,-25 -29,-25 -17,0 -33,5 -37,12 -12,19 -14,58 -3,58 18,0 9,27 -18,52 -27,25 -31,26 -128,21 -55,-2 -125,1 -155,7 -38,8 -77,9 -125,2 -39,-5 -143,-6 -235,-2 -106,4 -167,3 -172,-3 -10,-16 3,-81 21,-100 16,-16 19,-16 67,7 32,15 67,24 96,24 30,-1 59,6 82,20 55,33 71,20 38,-31 -23,-35 -60,-149 -65,-199 -1,-9 -5,-14 -9,-12 -4,3 -23,-6 -41,-20 -19,-15 -42,-26 -51,-26 -10,0 -28,-13 -41,-29 -14,-15 -50,-45 -80,-67 -47,-32 -64,-38 -101,-36 -53,2 -59,-13 -8,-22 19,-4 41,-9 48,-12 7,-3 43,18 81,46 38,27 80,50 92,50 13,0 23,-1 23,-3 0,-2 -18,-46 -40,-97 -22,-51 -40,-98 -40,-104 1,-19 47,-69 54,-58 3,6 2,13 -4,17 -17,11 -11,62 16,124 31,70 56,91 212,173 39,21 74,44 79,52 9,17 110,66 135,66 10,0 50,-9 90,-19 40,-11 99,-23 131,-27 31,-3 57,-10 57,-13 0,-4 35,-6 79,-3 91,5 91,6 91,-114 0,-40 6,-87 15,-107 8,-19 16,-63 17,-98 l 3,-64 38,4 39,3 -32,27 c -29,24 -31,32 -38,112 -7,80 2,162 23,212 9,21 42,17 145,-15 96,-31 134,-52 171,-99 19,-24 44,-53 56,-66 12,-12 27,-31 32,-40 10,-17 10,-17 11,0 0,10 -32,58 -70,107 -54,67 -86,97 -135,126 -84,48 -100,66 -86,93 6,11 11,35 11,54 0,28 9,45 43,80 24,24 60,50 81,57 32,10 40,10 57,-6 10,-9 19,-23 19,-30 0,-7 14,-21 30,-31 17,-10 33,-28 37,-41 3,-13 11,-21 18,-18 7,2 17,0 22,-5 6,-6 14,-4 22,5 11,12 8,34 -12,113 -27,102 -60,188 -78,199 -6,3 -16,-2 -23,-12 -13,-17 -15,-16 -45,9 -28,23 -38,26 -79,21 -77,-8 -170,-35 -176,-50 -10,-25 -50,-15 -101,26 -27,22 -55,40 -62,40 -6,0 -15,9 -18,20 -3,11 -10,20 -15,20 -21,0 -14,36 8,45 15,6 29,26 38,50 12,35 11,42 -3,57 -21,24 -60,23 -73,-1 z"
       id="path8"
       sodipodi:nodetypes="cccssccscccsssscsscccccccccccccsccccscsssccccccsccscsccccccscccccccccscccscccsccccccscssscccc"
       style="stroke:#ffffff;stroke-width:18.3667041;stroke-miterlimit:4;stroke-opacity:1;stroke-dasharray:none" />
  </g>
</svg>
