<?xml version="1.0" encoding="UTF-8" standalone="no"?>
<!-- Created with Inkscape (http://www.inkscape.org/) -->

<svg
   xmlns:dc="http://purl.org/dc/elements/1.1/"
   xmlns:cc="http://creativecommons.org/ns#"
   xmlns:rdf="http://www.w3.org/1999/02/22-rdf-syntax-ns#"
   xmlns:svg="http://www.w3.org/2000/svg"
   xmlns="http://www.w3.org/2000/svg"
   xmlns:sodipodi="http://sodipodi.sourceforge.net/DTD/sodipodi-0.dtd"
   xmlns:inkscape="http://www.inkscape.org/namespaces/inkscape"
   width="990"
   height="765"
   id="svg2"
   version="1.1"
   inkscape:version="0.47 r22583"
   sodipodi:docname="New document 1">
  <defs
     id="defs4">
    <inkscape:perspective
       sodipodi:type="inkscape:persp3d"
       inkscape:vp_x="0 : 526.18109 : 1"
       inkscape:vp_y="0 : 1000 : 0"
       inkscape:vp_z="744.09448 : 526.18109 : 1"
       inkscape:persp3d-origin="372.04724 : 350.78739 : 1"
       id="perspective10" />
    <inkscape:perspective
       id="perspective2898"
       inkscape:persp3d-origin="0.5 : 0.33333333 : 1"
       inkscape:vp_z="1 : 0.5 : 1"
       inkscape:vp_y="0 : 1000 : 0"
       inkscape:vp_x="0 : 0.5 : 1"
       sodipodi:type="inkscape:persp3d" />
  </defs>
  <sodipodi:namedview
     id="base"
     pagecolor="#ffffff"
     bordercolor="#666666"
     borderopacity="1.0"
     inkscape:pageopacity="0.0"
     inkscape:pageshadow="2"
     inkscape:zoom="0.98994949"
     inkscape:cx="728.37978"
     inkscape:cy="392.5367"
     inkscape:document-units="px"
     inkscape:current-layer="layer1"
     showgrid="false"
     inkscape:window-width="1920"
     inkscape:window-height="1125"
     inkscape:window-x="0"
     inkscape:window-y="25"
     inkscape:window-maximized="1" />
  <metadata
     id="metadata7">
    <rdf:RDF>
      <cc:Work
         rdf:about="">
        <dc:format>image/svg+xml</dc:format>
        <dc:type
           rdf:resource="http://purl.org/dc/dcmitype/StillImage" />
        <dc:title></dc:title>
      </cc:Work>
    </rdf:RDF>
  </metadata>
  <g
     inkscape:label="Layer 1"
     inkscape:groupmode="layer"
     id="layer1"
     transform="translate(0,-287.36218)">
    <path
       style="fill:#000000"
       d="m 462.75787,981.43987 c 0,-2.3079 -3.98613,-6.78473 -8.85807,-9.94852 -6.95583,-4.51707 -32.53055,-6.32297 -119.09187,-8.40946 -122.19087,-2.94529 -134.4513,-5.28276 -151.2181,-28.82953 -10.09966,-14.18366 -7.0154,-16.83329 3.71511,-3.19166 3.94362,5.01347 14.55433,12.4452 23.57937,16.51491 15.63166,7.04891 21.30788,7.17209 119.79001,2.5994 56.85942,-2.6401 106.7386,-3.60717 110.84256,-2.14905 4.10397,1.45812 11.29554,6.09601 15.98127,10.30647 8.46119,7.60302 8.605,7.59227 21.01591,-1.57087 14.46654,-10.68079 12.83567,-10.65981 135.81529,-1.74552 93.46035,6.77458 106.67427,5.32717 126.46246,-13.85229 7.31405,-7.08906 13.29825,-11.10149 13.29825,-8.91654 0,5.03434 -18.58715,22.48553 -31.49537,29.57049 -7.86404,4.31637 -32.44708,5.13316 -122.3057,4.06369 l -112.4634,-1.33851 -12.53386,10.54654 c -6.89363,5.80062 -12.53386,8.65831 -12.53386,6.35045 z m 68.16666,-65.24632 c -24.95599,-10.87508 -26.38722,-19.13344 -23.47898,-135.47762 1.74493,-69.80571 4.202,-107.17985 7.49669,-114.02954 2.69553,-5.60413 11.10165,-14.39681 18.68022,-19.5393 11.77872,-7.99246 17.42458,-9.12519 38.88785,-7.80219 23.02863,1.41954 26.2084,2.74781 38.38498,16.03477 9.13527,9.96832 13.36762,18.49605 13.56892,27.33987 0.16102,7.06902 1.06037,17.0012 1.99881,22.07152 1.22084,6.59612 -0.40239,9.7701 -5.70582,11.157 -4.67809,1.22332 -7.41208,5.44677 -7.41208,11.4501 0,10.52647 2.91171,11.91498 10.03915,4.78754 7.35228,-7.35228 5.55429,1.21871 -2.00878,9.57581 -5.19689,5.74255 -5.60393,8.13777 -1.78405,10.49863 3.74586,2.31503 4.63722,19.45166 3.66645,70.48814 -1.15753,60.85516 -2.07645,68.49834 -9.42499,78.39209 -4.47832,6.02948 -12.88668,13.62006 -18.68526,16.86802 -8.96507,5.02162 -11.05759,5.08335 -13.98244,0.41243 -3.25025,-5.19051 -15.20947,-4.76293 -31.79505,1.13679 -3.24796,1.15533 -11.54849,-0.35866 -18.44562,-3.36406 z m 6.63485,-30.14521 c 0,-2.1653 -1.77161,-2.84202 -3.93692,-1.50378 -2.16531,1.33824 -3.93692,4.20475 -3.93692,6.37005 0,2.16531 1.77161,2.84203 3.93692,1.50379 2.16531,-1.33824 3.93692,-4.20475 3.93692,-6.37006 z m 37.39064,-8.82764 c 1.0397,-4.63312 2.35313,-51.82839 2.91871,-104.8784 1.01474,-95.18205 0.9199,-96.47009 -7.19004,-97.62881 -15.36092,-2.19471 -17.1082,6.1205 -17.54973,83.51896 -0.39251,68.82632 -2.67856,96.35399 -9.97198,120.08654 -2.31787,7.54219 -1.69725,9.05047 2.98465,7.25385 3.25107,-1.24753 8.24711,-0.82447 11.10236,0.94018 7.50554,4.63868 15.52415,0.43042 17.70603,-9.29232 z m 120.99514,-58.0916 1.05954,-87.06852 25.92624,-0.17637 c 14.25945,-0.0972 27.86707,1.02293 30.2391,2.48892 2.37208,1.46603 5.42567,0.86498 6.78572,-1.33564 3.88432,-6.28498 21.68122,-4.67517 24.31939,2.19979 3.81464,9.94077 -5.74744,35.97347 -14.00674,38.1333 -5.58456,1.4604 -6.91461,4.4677 -5.42425,12.26414 1.95208,10.21151 2.36786,10.3293 36.46585,10.3293 24.69107,0 35.78551,-1.55941 39.04615,-5.48826 8.44922,-10.18088 -5.335,-18.13346 -31.43041,-18.13346 -12.83716,0 -23.26213,-1.32872 -23.16658,-2.9527 0.0957,-1.62398 2.32444,-11.09507 4.953,-21.0469 l 4.77927,-18.09417 27.5266,1.17888 c 56.99812,2.44101 71.46248,7.48243 82.45457,28.73874 8.79319,17.00423 5.78424,49.14573 -5.75027,61.42365 -13.14826,13.99567 -30.78059,17.63323 -85.59423,17.65819 l -48.22728,0.0236 -0.46621,30.51115 c -0.2563,16.78112 -0.2563,31.83985 0,33.46383 0.25629,1.62398 -15.51222,2.95269 -35.0414,2.95269 l -35.50761,0 1.05955,-87.06852 z M 68.081492,892.17549 c -1.62398,-1.67083 -2.952691,-33.74583 -2.952691,-71.27784 l 0,-68.23996 13.779225,0 13.779225,0 0,61.02228 0,61.02228 33.463839,0 c 30.8392,0 33.46383,0.61755 33.46383,7.87385 0,4.33061 -0.4429,7.90569 -0.98423,7.94463 -43.50897,3.12922 -88.320113,3.94814 -90.549198,1.65476 z M 345.63446,863.89938 c -29.8262,-1.21796 -38.68132,-4.58415 -28.54268,-10.85019 2.16531,-1.33824 3.93692,-5.2606 3.93692,-8.71635 0,-5.47216 -1.01635,-5.36342 -7.87384,0.8425 -4.33062,3.91917 -7.87184,9.06567 -7.86944,11.43672 0.003,2.93738 -13.48171,3.89385 -42.3219,3.00182 -55.99535,-1.73193 -72.0746,-8.38316 -81.79462,-33.83473 -9.51661,-24.91886 -3.15655,-56.21498 14.43173,-71.01454 11.22522,-9.44538 14.34598,-9.98076 58.17998,-9.98076 25.47519,0 70.35735,1.15288 99.73813,2.56195 46.58059,2.23396 53.14103,3.36803 51.24352,8.85807 -1.9798,5.7283 -1.58032,5.7381 4.42931,0.10905 9.46219,-8.86291 28.08119,-4.91316 41.87829,8.88398 11.40349,11.40349 21.10202,35.50473 15.24707,37.88952 -1.64363,0.66944 -2.14629,6.87009 -1.11702,13.77923 2.48301,16.66782 -10.30556,36.9045 -27.99179,44.2943 -7.60381,3.17706 -23.57165,5.31626 -36.33031,4.8671 -12.52007,-0.44074 -37.37957,-1.39816 -55.24335,-2.12767 z m -33.38183,-35.70201 c 2.362,-7.08591 -5.77546,-5.59693 -8.52154,1.55926 -1.47135,3.8342 -0.59148,5.63405 2.28542,4.67509 2.57278,-0.85758 5.37902,-3.66303 6.23612,-6.23435 z m 28.46068,-0.73817 c 0,-2.16531 -1.77162,-3.93693 -3.93692,-3.93693 -2.16531,0 -3.93692,1.77162 -3.93692,3.93693 0,2.1653 1.77161,3.93692 3.93692,3.93692 2.1653,0 3.93692,-1.77162 3.93692,-3.93692 z m 80.72358,-7.88019 c 7.65566,-2.91068 10.04238,-6.25458 9.11437,-12.76968 -1.43084,-10.04533 -12.64752,-13.57458 -45.50117,-14.31665 -17.22718,-0.38897 -20.46801,-1.60008 -19.68461,-7.35539 0.51578,-3.78929 -0.8338,-7.77542 -2.9991,-8.85807 -2.16531,-1.08266 -4.52888,2.21479 -5.25237,7.32767 -1.30312,9.20889 -1.63563,9.26956 -35.43229,6.46714 -18.76427,-1.55591 -35.44556,-4.85336 -37.06954,-7.32767 -2.192,-3.33965 -3.74299,-3.27977 -6.0203,0.23228 -1.81016,2.79183 -15.12369,5.21248 -32.47961,5.90538 -27.0807,1.0812 -29.51163,1.87586 -30.6692,10.026 -0.89498,6.3012 1.37378,9.84163 7.87384,12.28725 5.02209,1.88956 48.10658,4.72104 95.74333,6.29215 47.63675,1.5711 87.35045,3.57118 88.25267,4.44462 2.22038,2.1496 2.31849,2.13326 14.12398,-2.35518 z m 517.68848,-90.54285 c 0,-12.96216 -4.22235,-15.04884 -11.85104,-5.85684 -3.7198,4.48207 -6.25266,4.86564 -10.24576,1.55166 -4.3462,-3.60701 -3.77393,-5.64165 3.16773,-11.26263 l 8.47213,-6.86036 -10.51921,-2.64014 c -13.53211,-3.39634 -14.02281,-14.3009 -0.64357,-14.3009 8.84854,0 9.37062,-0.80869 5.01973,-7.77558 -3.87539,-6.20554 -3.83263,-8.7891 0.21181,-12.795 4.11152,-4.07231 5.80125,-3.7194 8.95512,1.8702 5.19933,9.21487 10.53693,8.71107 12.08036,-1.14017 1.77224,-11.3118 8.88473,-9.93971 10.37761,2.002 1.42489,11.39778 5.4237,12.6261 12.67196,3.89247 3.42154,-4.12266 6.32723,-4.78454 9.05028,-2.06149 2.72305,2.72305 1.78783,6.46707 -2.91293,11.66136 -6.6606,7.35984 -6.57631,7.69999 2.2181,8.9511 13.38144,1.90362 14.73255,15.07971 1.5463,15.07971 -9.85994,0 -10.0045,0.33149 -4.08432,9.36688 5.62764,8.58883 5.57386,9.58318 -0.64754,11.97053 -4.18735,1.60681 -8.08447,0.28149 -10.17923,-3.4615 -5.16524,-9.22988 -10.87677,-7.24646 -10.87677,3.77716 0,6.12412 -2.23093,9.8423 -5.90538,9.8423 -3.93692,0 -5.90538,-3.93692 -5.90538,-11.81076 z M 247.69185,679.69413 c -6.773,-3.46114 -15.4675,-12.14764 -19.32112,-19.30335 -6.39096,-11.86734 -6.80662,-22.18515 -4.73091,-117.4377 1.84535,-84.68263 3.46405,-106.72553 8.56122,-116.58232 16.03418,-31.00673 75.18363,-35.54537 98.71922,-7.57492 10.02226,11.9108 10.07324,12.34328 9.61538,81.57026 -0.25315,38.27778 -1.77646,89.54 -3.38501,113.916 -2.82139,42.75438 -3.36225,44.75756 -15.31029,56.70565 -10.8202,10.82016 -15.51041,12.55075 -37.10974,13.69245 -17.08124,0.90286 -28.53095,-0.63845 -37.03875,-4.98607 z m 43.43955,-36.6497 c 1.04384,-3.58926 3.1171,-49.96206 4.60734,-103.0507 2.34125,-83.40769 1.90406,-97.19318 -3.21744,-101.44364 -7.79991,-6.47336 -18.36992,-2.12026 -20.50869,8.4462 -0.93777,4.63312 -2.80706,51.23423 -4.15396,103.55808 -2.26704,88.06984 -1.93634,95.42109 4.45395,98.99727 8.54927,4.78439 16.31606,2.09878 18.8188,-6.50721 z m 38.1798,-60.84048 c -5.053,-5.053 -10.17718,-1.14761 -6.43624,4.90532 1.4491,2.34468 4.43829,3.1484 6.64265,1.78603 2.68892,-1.66182 2.621,-3.86393 -0.2063,-6.69135 z m 512.42115,68.89081 c -5.74995,-0.86955 -20.79899,-16.61782 -43.30614,-45.31834 l -34.49384,-43.98564 -3.17025,35.37323 c -4.1714,46.54387 -9.70156,53.13372 -44.58941,53.13372 l -24.73407,0 2.34121,-87.5965 c 1.28765,-48.17808 2.54002,-87.5965 2.78301,-87.5965 0.24291,0 17.66016,0.56317 38.70474,1.2515 l 38.2629,1.25151 16.09532,20.40156 c 8.8524,11.22086 20.86576,26.52454 26.6963,34.00815 5.83054,7.48362 14.53114,18.11331 19.33466,23.62153 l 8.73366,10.01494 0.12441,-44.29037 0.12441,-44.29036 33.53914,0 33.53915,0 -1.05955,87.5965 -1.05954,87.5965 -29.52691,0.0807 c -16.2398,0.0445 -33.49242,-0.51908 -38.3392,-1.25202 z m -91.57921,-22.21774 c 0,-0.95486 -1.77161,-2.83104 -3.93692,-4.16928 -2.16531,-1.33824 -3.93692,-0.55699 -3.93692,1.7361 0,2.2931 1.77161,4.16928 3.93692,4.16928 2.16531,0 3.93692,-0.78124 3.93692,-1.7361 z M 415.30907,618.84728 c -43.26519,-2.31633 -56.13475,-8.3371 -65.44368,-30.61645 -8.91677,-21.34091 -3.85543,-54.06925 10.59666,-68.52134 11.34845,-11.34845 19.62047,-14.35405 19.62047,-7.12901 0,4.55108 18.9066,1.0008 26.50147,-4.97643 6.68572,-5.26173 190.67424,0.54251 202.18698,6.37837 16.97246,8.60339 25.24299,24.88791 25.24299,49.70304 0,26.6837 -8.23632,41.1161 -29.80675,52.22995 -11.64695,6.0009 -22.95355,6.81745 -82.39551,5.95031 -37.89287,-0.55275 -85.81907,-1.91106 -106.50263,-3.01844 z m 175.14246,-43.25362 c 10.84799,-4.1244 13.1405,-12.45291 5.17744,-18.80915 -2.8734,-2.29361 -47.32262,-4.54195 -106.82092,-5.40323 -93.09914,-1.34765 -102.27189,-0.88939 -106.20838,5.30622 -8.39013,13.20507 2.61557,16.71448 59.67031,19.02726 94.99035,3.85055 137.8274,3.81555 148.18155,-0.12126 z m -54.13972,-40.20482 c -1.25674,-3.1406 -2.18964,-2.20775 -2.37853,2.37857 -0.17086,4.15014 0.75951,6.4754 2.06775,5.1672 1.3082,-1.30823 1.44804,-4.70379 0.31062,-7.54577 z m -471.183009,16.48585 0,-59.05382 -21.653068,0 c -20.471992,0 -21.653068,-0.53684 -21.653068,-9.8423 l 0,-9.84231 57.085361,0 57.085364,0 0,9.84231 c 0,9.30546 -1.18107,9.8423 -21.65307,9.8423 l -21.653069,0 -0.04331,44.29037 c -0.02362,24.3597 -1.141431,50.93392 -2.483567,59.05382 -2.159126,13.06259 -3.741572,14.76346 -13.73588,14.76346 l -11.295658,0 0,-59.05383 z m 11.810764,-2.20081 c 0,-3.37576 -1.800511,-5.02493 -4.001132,-3.66488 -2.200621,1.36004 -2.981903,4.12203 -1.736143,6.13774 3.374886,5.46066 5.737275,4.44246 5.737275,-2.47286 z M 869.07797,422.38411 c -6.77127,-8.42592 -20.79777,-19.49851 -31.17002,-24.60576 -17.27293,-8.50509 -23.49366,-9.24676 -73.98074,-8.82063 -30.31717,0.2559 -79.03657,1.60225 -108.26534,2.99198 -29.22881,1.38969 -75.30111,3.59839 -102.38287,4.90824 -54.54239,2.63797 -70.43023,-0.99384 -88.19303,-20.16023 l -9.47676,-10.2256 -9.72376,9.72376 c -20.12582,20.12582 -29.83128,20.58388 -180.2364,8.50643 -75.72196,-6.08042 -148.79591,-10.16273 -162.38655,-9.07181 -28.90024,2.31983 -44.293682,9.40228 -63.565936,29.24629 -17.786027,18.31369 -21.416144,15.27699 -6.444425,-5.39091 12.619408,-17.4206 36.491482,-30.85361 63.574864,-35.77421 9.632317,-1.75004 85.533407,-1.65323 168.669057,0.21495 160.89804,3.61591 164.48781,3.32021 181.66531,-14.96439 l 8.80276,-9.37015 7.99482,10.16375 c 14.28614,18.16189 28.0821,20.99332 103.98512,21.34142 38.50376,0.17677 109.86814,1.6093 158.58754,3.18379 79.71837,2.57632 90.55014,3.74697 108.26534,11.70077 21.97798,9.86774 39.20355,24.63745 47.69565,40.89552 8.21427,15.72627 0.85273,13.26046 -13.41463,-4.49333 z"
       id="path2904" />
  </g>
</svg>
