/* XPM */
static char * toonloop_32x32_xpm[] = {
"32 32 94 2",
"  	c None",
". 	c #D9D9D9",
"+ 	c #2D2D2D",
"@ 	c #555555",
"# 	c #989898",
"$ 	c #020202",
"% 	c #C9C9C9",
"& 	c #ADADAD",
"* 	c #000000",
"= 	c #969696",
"- 	c #AAAAAA",
"; 	c #0A0A0A",
"> 	c #9C9C9C",
", 	c #D8D8D8",
"' 	c #BBBBBB",
") 	c #3D3D3D",
"! 	c #5C5C5C",
"~ 	c #D7D7D7",
"{ 	c #373737",
"] 	c #858585",
"^ 	c #B0B0B0",
"/ 	c #828282",
"( 	c #3A3A3A",
"_ 	c #A8A8A8",
": 	c #E6E6E6",
"< 	c #090909",
"[ 	c #1B1B1B",
"} 	c #5E5E5E",
"| 	c #3F3F3F",
"1 	c #414141",
"2 	c #212121",
"3 	c #191919",
"4 	c #1D1D1D",
"5 	c #686868",
"6 	c #A3A3A3",
"7 	c #282828",
"8 	c #232323",
"9 	c #242424",
"0 	c #262626",
"a 	c #272727",
"b 	c #292929",
"c 	c #9A9A9A",
"d 	c #CBCBCB",
"e 	c #121212",
"f 	c #4A4A4A",
"g 	c #B3B3B3",
"h 	c #535353",
"i 	c #434343",
"j 	c #353535",
"k 	c #A7A7A7",
"l 	c #DBDBDB",
"m 	c #979797",
"n 	c #AFAFAF",
"o 	c #010101",
"p 	c #6F6F6F",
"q 	c #454545",
"r 	c #111111",
"s 	c #C1C1C1",
"t 	c #2B2B2B",
"u 	c #B9B9B9",
"v 	c #888888",
"w 	c #CCCCCC",
"x 	c #3E3E3E",
"y 	c #616161",
"z 	c #202020",
"A 	c #ABABAB",
"B 	c #949494",
"C 	c #737373",
"D 	c #252525",
"E 	c #1F1F1F",
"F 	c #171717",
"G 	c #C7C7C7",
"H 	c #A2A2A2",
"I 	c #222222",
"J 	c #363636",
"K 	c #838383",
"L 	c #C8C8C8",
"M 	c #2C2C2C",
"N 	c #080808",
"O 	c #5D5D5D",
"P 	c #1A1A1A",
"Q 	c #505050",
"R 	c #7C7C7C",
"S 	c #585858",
"T 	c #DEDEDE",
"U 	c #C6C6C6",
"V 	c #A6A6A6",
"W 	c #5B5B5B",
"X 	c #C2C2C2",
"Y 	c #E0E0E0",
"Z 	c #C4C4C4",
"` 	c #D2D2D2",
" .	c #B8B8B8",
"..	c #CACACA",
"                                                                ",
"                                                                ",
"                                                                ",
"                                                                ",
"                                                                ",
"                                                                ",
"                                                                ",
"                                      .                         ",
"                                      + @                       ",
"                                    # $ %                       ",
"                                  & * =                         ",
"                                - ; * * >           ,           ",
"                                ' ) ! ~ { ]   ^ / ( * + _       ",
"                                      : ^ < [ < * * * * * }     ",
"                                      | * * * * * * * * * * .   ",
"      1 2 3 4 5 6 7 8 8 9 0 a b b c   d e * * * * * f g h * ]   ",
"      i j k l   m * * * * * * * * 0   n * * * * o p       3 {   ",
"                q * * * * * * * * r s t * * * * 9         u v   ",
"              w * * * * * $ * * * * * * * * * * x               ",
"              y * * * z = A B C D * * * * * * * q               ",
"              E * F }             G & _ H e I J 2 K             ",
"        L M N * O                         P d       &           ",
"      s Q R P 6                           S           T         ",
"  U V     W                               B                     ",
"          X                               %               Y     ",
"        ^                                 Z `                   ",
"         .                                ..6                   ",
"                                                                ",
"                                                                ",
"                                                                ",
"                                                                ",
"                                                                "};
