/* XPM */
static char *frame___x__[] = {
/* columns rows colors chars-per-pixel */
"32 32 126 2",
"   c #000000",
".  c #020202",
"X  c #030303",
"o  c #050505",
"O  c #060606",
"+  c #080808",
"@  c #0A0A0A",
"#  c #0B0B0B",
"$  c #0E0E0E",
"%  c #0F0F0F",
"&  c #101010",
"*  c #181818",
"=  c #1A1A1A",
"-  c #1B1B1B",
";  c #1C1C1C",
":  c #1E1E1E",
">  c #1F1F1F",
",  c #212121",
"<  c #222222",
"1  c #242424",
"2  c #252525",
"3  c #262626",
"4  c #282828",
"5  c #2A2A2A",
"6  c #2D2D2D",
"7  c #333333",
"8  c #363636",
"9  c #393939",
"0  c #3A3A3A",
"q  c #3C3C3C",
"w  c #3F3F3F",
"e  c #404040",
"r  c #424242",
"t  c #444444",
"y  c #464646",
"u  c #494949",
"i  c #515151",
"p  c #525252",
"a  c #545454",
"s  c #565656",
"d  c #5B5B5B",
"f  c #5C5C5C",
"g  c #5F5F5F",
"h  c #626262",
"j  c #636363",
"k  c #656565",
"l  c #6C6C6C",
"z  c #6F6F6F",
"x  c #717171",
"c  c #737373",
"v  c #787878",
"b  c #7B7B7B",
"n  c #7D7D7D",
"m  c #828282",
"M  c #848484",
"N  c #858585",
"B  c #878787",
"V  c #909090",
"C  c #939393",
"Z  c #969696",
"A  c #999999",
"S  c #9A9A9A",
"D  c #9B9B9B",
"F  c #9C9C9C",
"G  c #9E9E9E",
"H  c #A1A1A1",
"J  c #A5A5A5",
"K  c #A7A7A7",
"L  c #A8A8A8",
"P  c #AAAAAA",
"I  c #ABABAB",
"U  c #ACACAC",
"Y  c #ADADAD",
"T  c #AEAEAE",
"R  c #B2B2B2",
"E  c #B5B5B5",
"W  c #B7B7B7",
"Q  c #BABABA",
"!  c #BBBBBB",
"~  c #BCBCBC",
"^  c #C0C0C0",
"/  c #C1C1C1",
"(  c #C2C2C2",
")  c #C3C3C3",
"_  c #C4C4C4",
"`  c #C6C6C6",
"'  c #C9C9C9",
"]  c #CECECE",
"[  c #CFCFCF",
"{  c #D0D0D0",
"}  c #D2D2D2",
"|  c #D3D3D3",
" . c #D5D5D5",
".. c #D6D6D6",
"X. c #D7D7D7",
"o. c #D8D8D8",
"O. c #DBDBDB",
"+. c #DCDCDC",
"@. c #DEDEDE",
"#. c #E0E0E0",
"$. c #E1E1E1",
"%. c #E2E2E2",
"&. c #E4E4E4",
"*. c #E5E5E5",
"=. c #E6E6E6",
"-. c #E7E7E7",
";. c #E8E8E8",
":. c #EAEAEA",
">. c #EBEBEB",
",. c #ECECEC",
"<. c #EDEDED",
"1. c #EEEEEE",
"2. c #EFEFEF",
"3. c #F0F0F0",
"4. c #F1F1F1",
"5. c #F2F2F2",
"6. c #F3F3F3",
"7. c #F4F4F4",
"8. c #F5F5F5",
"9. c #F6F6F6",
"0. c #F7F7F7",
"q. c #F8F8F8",
"w. c #F9F9F9",
"e. c #FAFAFA",
"r. c #FBFBFB",
"t. c None",
/* pixels */
"                                                                ",
"  t.        t.        t.      t.t.      t.t.      t.        t.  ",
"  t.        t.        t.      t.t.      t.t.      t.        t.  ",
"                                                                ",
"2 z z z z z z z z z z z z z z z z z z z z z z z z z z z z z z 2 ",
"i >.>.>.>.>.>.>.>.>.>.>.<.<.<.<.<.<.<.<.>.>.>.<.>.>.>.>.>.>.<.i ",
"i >.>.>.>.>.>.>.<.<.<.<.<.<.<.4.<.<.<.( ( <.<.<.>.>.>.>.>.>.>.i ",
"i >.>.>.>.>.<.<.<.<.4.<.4.4.4.4.4.4.4.8 i <.<.<.<.>.>.>.>.>.>.i ",
"i >.>.>.>.<.<.<.4.<.4.4.4.4.4.4.4.4.! - W 4.<.4.<.<.>.>.>.>.>.i ",
"i >.>.>.<.<.<.<.4.4.4.4.7.7.7.7.7.R O 2 4.4.4.<.4.<.<.<.>.>.>.i ",
"i >.>.<.<.<.<.4.4.4.7.7.7.7.7.7.7.9   y 7.7.4.] ( P A <.>.>.>.i ",
"i >.>.<.<.4.4.4.7.7.7.7.q.q.q.q.o.O 6 7 f o.>.d       M <.<.>.i ",
"i >.<.<.4.4.4.7.7.7.7.q.7.q.q.q.G   A 7.U @ O           V >.>.i ",
"i <.<.<.<.4.4.4.7.&.! ` @.4.r.q.@.$ - $           e a   O ( >.i ",
"i <.<.<.4.4.! h y -         O &                 9 >.4. .m ` <.i ",
"i U i 9 2 @ : Z %.O                             o.4.4.4.<.<.>.i ",
"i } l z z Z <.7.H                             e 7.7.4.4.<.<.>.i ",
"i >.<.<.<.4.4.4.f                             < <.4.4.4.4.<.<.i ",
"i <.<.<.4.<.G 2   O k ' &.R x <                 e @.4.<.<.<.>.i ",
"i >.>.>.V < 9 $ < ( q.7.q.q.q.q.4.%.] ( K : x K f 5 A 4.<.<.>.i ",
"i } v e c ] B 8 %.4.7.7.q.q.q.q.7.q.q.7.7.a G 4.4.<.P v M ( &.i ",
"i @.} <.<.~ u >.4.4.7.7.7.7.7.7.7.7.7.7.7.v ! 4.4.4.<.<. .A ` i ",
"i >.>.>. .a &.4.<.4.4.7.7.4.7.7.7.7.7.7.4.U U 4.<.<.<.<.>.>.>.i ",
"i >.>.} d @.<.<.4.4.4.4.4.7.4.4.7.4.4.4.4.&.m <.<.<.>.>.>.>.>.i ",
"i >.>.>.>.>.<.<.<.<.<.4.4.4.4.4.<.4.<.4.4.<.k z <.<.>.>.>.>.>.i ",
"i >.>.>.>.>.>.>.<.<.<.<.<.<.<.<.4.4.<.<.<.<.<.U &.>.>.>.>.>.>.i ",
"i >.>.>.>.>.>.>.>.>.>.<.<.<.<.<.<.<.<.<.<.>.>.>.>.>.>.>.>.>.>.i ",
"5 n n n n n n n n n n n n n n n n n n n n n n n n n n n n n n 5 ",
"                                                                ",
"  t.        t.        t.      t.t.      t.t.      t.        t.  ",
"  t.        t.        t.      t.t.      t.t.      t.        t.  ",
"                                                                "
};
